# Blender v3.1.2 OBJ File: 'meshes.blend'
# www.blender.org
o Plus_Cube
v -1.000000 0.333333 0.333333
v -1.000000 0.333333 -0.333333
v 1.000000 0.333333 0.333333
v 1.000000 0.333333 -0.333333
v -1.000000 -0.333333 0.333333
v -1.000000 -0.333333 -0.333333
v 1.000000 -0.333333 0.333333
v 1.000000 -0.333333 -0.333333
v -1.000000 -0.333333 -1.000000
v 1.000000 -0.333333 -1.000000
v -1.000000 0.333333 -1.000000
v 1.000000 0.333333 1.000000
v 1.000000 -0.333333 1.000000
v -1.000000 0.333333 1.000000
v 1.000000 0.333333 -1.000000
v -1.000000 -0.333333 1.000000
v -1.000000 -1.000000 -0.333333
v 1.000000 -1.000000 -0.333333
v -1.000000 1.000000 0.333333
v -1.000000 1.000000 -0.333333
v 1.000000 -1.000000 0.333333
v 1.000000 1.000000 0.333333
v 1.000000 1.000000 -0.333333
v -1.000000 -1.000000 0.333333
vt 0.666667 0.666667
vt 0.333333 1.000000
vt 0.333333 0.666667
vt 0.333333 0.333333
vt 0.666667 0.333333
vt 0.666667 0.666667
vt 1.000000 0.333333
vt 0.666667 0.333333
vt 0.666667 0.000000
vt 1.000000 0.666667
vt 0.333333 0.666667
vt 0.333333 0.333333
vt 0.333333 0.666667
vt 0.666667 0.333333
vt 0.666667 0.666667
vt 0.666667 0.666667
vt 0.333333 0.333333
vt 0.333333 0.666667
vt 0.333333 0.333333
vt 0.666667 0.000000
vt 0.666667 0.333333
vt 0.333333 0.000000
vt 0.666667 1.000000
vt 0.666667 0.666667
vt 0.333333 1.000000
vt 0.333333 0.666667
vt 0.333333 0.000000
vt 0.666667 1.000000
vt 0.333333 0.666667
vt 0.666667 0.333333
vt 0.333333 0.333333
vt 0.666667 0.666667
vt 0.333333 0.333333
vt 0.666667 0.333333
vt 0.666667 0.666667
vt 1.000000 0.333333
vt 0.000000 0.666667
vt 0.333333 0.666667
vt 0.000000 0.333333
vt 0.333333 0.333333
vt 0.666667 0.333333
vt 1.000000 0.666667
vt 0.000000 0.666667
vt 0.000000 0.333333
vt 0.666667 1.000000
vt 0.333333 0.333333
vt 0.666667 0.333333
vt 0.333333 0.000000
vt 0.666667 0.000000
vt 0.333333 1.000000
vt 0.666667 0.666667
vt 0.333333 0.666667
vt 1.000000 0.666667
vt 1.000000 0.333333
vt 0.000000 0.333333
vt 0.000000 0.666667
vn 1.0000 0.0000 0.0000
vn -1.0000 0.0000 0.0000
vn 0.0000 0.0000 1.0000
vn 0.0000 0.0000 -1.0000
vn 0.0000 1.0000 0.0000
vn 0.0000 -1.0000 0.0000
s off
f 3/1/1 13/2/1 7/3/1
f 3/1/1 8/4/1 4/5/1
f 1/6/2 20/7/2 2/8/2
f 8/4/1 15/9/1 4/5/1
f 4/5/1 22/10/1 3/1/1
f 5/11/2 2/8/2 6/12/2
f 16/13/3 12/14/3 14/15/3
f 11/16/4 10/17/4 9/18/4
f 4/19/5 11/20/5 2/8/5
f 6/21/6 10/22/6 8/4/6
f 7/3/6 16/23/6 5/24/6
f 1/6/5 12/25/5 3/26/5
f 2/8/2 9/27/2 6/12/2
f 5/11/2 14/28/2 1/6/2
f 21/29/6 17/30/6 18/31/6
f 19/32/5 23/33/5 20/34/5
f 2/35/4 23/36/4 4/5/4
f 8/4/4 17/37/4 6/38/4
f 5/11/3 21/39/3 7/40/3
f 3/41/3 19/42/3 1/6/3
f 6/12/2 24/43/2 5/11/2
f 7/3/1 18/44/1 8/4/1
f 3/1/1 12/45/1 13/2/1
f 3/1/1 7/3/1 8/4/1
f 1/6/2 19/42/2 20/7/2
f 8/4/1 10/22/1 15/9/1
f 4/5/1 23/36/1 22/10/1
f 5/11/2 1/6/2 2/8/2
f 16/13/3 13/46/3 12/14/3
f 11/16/4 15/47/4 10/17/4
f 4/19/5 15/48/5 11/20/5
f 6/21/6 9/49/6 10/22/6
f 7/3/6 13/2/6 16/23/6
f 1/6/5 14/28/5 12/25/5
f 2/8/2 11/20/2 9/27/2
f 5/11/2 16/50/2 14/28/2
f 21/29/6 24/51/6 17/30/6
f 19/32/5 22/52/5 23/33/5
f 2/35/4 20/53/4 23/36/4
f 8/4/4 18/44/4 17/37/4
f 5/11/3 24/43/3 21/39/3
f 3/41/3 22/54/3 19/42/3
f 6/12/2 17/55/2 24/43/2
f 7/3/1 21/56/1 18/44/1
